<svg xmlns="http://www.w3.org/2000/svg" width="1366" height="900" viewBox="0 0 1366 900">
  <rect width="1366" height="900" fill="#f6f7f9"/>
  <rect x="20" y="16" width="1326" height="56" rx="10" fill="#ffffff" stroke="#cfd6e0"/>
  <text x="40" y="50" font-family="Arial" font-size="16" fill="#374151">OKRs / New / Draft: SMB Activation</text>
  <rect x="1180" y="27" width="90" height="30" rx="15" fill="#fef3c7" stroke="#fcd34d"/>
  <text x="1210" y="47" font-family="Arial" font-size="12" fill="#92400e">Draft</text>

  <rect x="20" y="88" width="520" height="760" rx="12" fill="#ffffff" stroke="#cfd6e0"/>
  <text x="42" y="122" font-family="Arial" font-size="18" fill="#111827">Refine with Coach</text>

  <rect x="42" y="146" width="470" height="82" rx="12" fill="#e5e7eb" stroke="#d1d5db"/>
  <text x="56" y="178" font-family="Arial" font-size="13" fill="#1f2937">User: Make KR2 more ambitious but still realistic for one quarter.</text>

  <rect x="42" y="242" width="470" height="94" rx="12" fill="#eef2ff" stroke="#c7d2fe"/>
  <text x="56" y="274" font-family="Arial" font-size="13" fill="#3730a3">Coach: Updated KR2 target from 22% to 28% activation.</text>
  <text x="56" y="294" font-family="Arial" font-size="13" fill="#3730a3">I also tightened metric wording for KR1 and KR3.</text>

  <text x="42" y="374" font-family="Arial" font-size="13" fill="#6b7280">Quick commands</text>
  <rect x="42" y="386" width="198" height="34" rx="17" fill="#f3f4f6" stroke="#d1d5db"/>
  <text x="58" y="408" font-family="Arial" font-size="12" fill="#374151">Make KRs measurable</text>
  <rect x="248" y="386" width="170" height="34" rx="17" fill="#f3f4f6" stroke="#d1d5db"/>
  <text x="269" y="408" font-family="Arial" font-size="12" fill="#374151">Shorten objective</text>
  <rect x="42" y="738" width="390" height="82" rx="10" fill="#ffffff" stroke="#cfd6e0"/>
  <text x="58" y="785" font-family="Arial" font-size="14" fill="#9ca3af">Ask for another revision...</text>
  <rect x="440" y="738" width="72" height="82" rx="10" fill="#dbeafe" stroke="#60a5fa"/>
  <text x="461" y="785" font-family="Arial" font-size="14" fill="#1d4ed8">Send</text>

  <rect x="556" y="88" width="790" height="760" rx="12" fill="#ffffff" stroke="#cfd6e0"/>
  <text x="578" y="122" font-family="Arial" font-size="18" fill="#111827">Generated Draft</text>

  <rect x="578" y="142" width="746" height="96" rx="8" fill="#f9fafb" stroke="#e5e7eb"/>
  <text x="596" y="174" font-family="Arial" font-size="14" fill="#111827">Objective</text>
  <text x="596" y="198" font-family="Arial" font-size="13" fill="#374151">Increase SMB new-user activation so more accounts reach first value within 14 days.</text>

  <rect x="578" y="254" width="746" height="96" rx="8" fill="#f9fafb" stroke="#e5e7eb"/>
  <text x="596" y="286" font-family="Arial" font-size="14" fill="#111827">KR1: Raise onboarding completion rate from 54% → 70%</text>
  <text x="596" y="310" font-family="Arial" font-size="12" fill="#6b7280">Metric: Completion in 7 days • Owner: Growth PM</text>

  <rect x="578" y="364" width="746" height="96" rx="8" fill="#f9fafb" stroke="#e5e7eb"/>
  <text x="596" y="396" font-family="Arial" font-size="14" fill="#111827">KR2: Improve activation from 16% → 28%</text>
  <text x="596" y="420" font-family="Arial" font-size="12" fill="#6b7280">Metric: Activated accounts / signups • Owner: Product Lead</text>

  <rect x="578" y="474" width="746" height="96" rx="8" fill="#f9fafb" stroke="#e5e7eb"/>
  <text x="596" y="506" font-family="Arial" font-size="14" fill="#111827">KR3: Reduce time-to-first-value from 5.8 days → 3.5 days</text>
  <text x="596" y="530" font-family="Arial" font-size="12" fill="#6b7280">Metric: Median days to first core action • Owner: Lifecycle Team</text>

  <rect x="578" y="590" width="746" height="92" rx="8" fill="#fffbeb" stroke="#fcd34d"/>
  <text x="596" y="622" font-family="Arial" font-size="14" fill="#92400e">Quality Checks</text>
  <text x="596" y="646" font-family="Arial" font-size="12" fill="#92400e">✓ Outcome-focused  ✓ Measurable  ⚠ Target realism: review KR2 confidence</text>

  <rect x="818" y="760" width="140" height="48" rx="8" fill="#ffffff" stroke="#cfd6e0"/>
  <text x="842" y="790" font-family="Arial" font-size="13" fill="#374151">Regenerate KRs</text>
  <rect x="970" y="760" width="110" height="48" rx="8" fill="#ffffff" stroke="#cfd6e0"/>
  <text x="994" y="790" font-family="Arial" font-size="13" fill="#374151">Save Draft</text>
  <rect x="1092" y="760" width="140" height="48" rx="8" fill="#dbeafe" stroke="#60a5fa"/>
  <text x="1135" y="790" font-family="Arial" font-size="13" fill="#1d4ed8">Publish</text>

  <text x="20" y="882" font-family="Arial" font-size="12" fill="#9ca3af">Wireframe 03 — Draft Review &amp; Refine</text>
</svg>