<svg xmlns="http://www.w3.org/2000/svg" width="1366" height="900" viewBox="0 0 1366 900">
  <rect width="1366" height="900" fill="#f6f7f9"/>
  <rect x="20" y="16" width="1326" height="56" rx="10" fill="#ffffff" stroke="#cfd6e0"/>
  <text x="40" y="50" font-family="Arial" font-size="16" fill="#374151">OKRs / Drafts</text>

  <rect x="20" y="88" width="360" height="760" rx="12" fill="#ffffff" stroke="#cfd6e0"/>
  <text x="42" y="122" font-family="Arial" font-size="18" fill="#111827">Drafts</text>
  <rect x="42" y="136" width="96" height="30" rx="15" fill="#e5e7eb" stroke="#d1d5db"/>
  <text x="72" y="156" font-family="Arial" font-size="12" fill="#374151">All</text>
  <rect x="146" y="136" width="96" height="30" rx="15" fill="#f3f4f6" stroke="#d1d5db"/>
  <text x="175" y="156" font-family="Arial" font-size="12" fill="#374151">Mine</text>
  <rect x="250" y="136" width="110" height="30" rx="15" fill="#f3f4f6" stroke="#d1d5db"/>
  <text x="263" y="156" font-family="Arial" font-size="12" fill="#374151">Needs review</text>

  <rect x="42" y="182" width="316" height="110" rx="10" fill="#eef2ff" stroke="#c7d2fe"/>
  <text x="56" y="212" font-family="Arial" font-size="14" fill="#111827">SMB Activation Q2</text>
  <text x="56" y="236" font-family="Arial" font-size="12" fill="#4b5563">Updated 12 min ago • Readiness 82%</text>
  <text x="56" y="258" font-family="Arial" font-size="12" fill="#4b5563">Owner: Robin</text>

  <rect x="42" y="304" width="316" height="96" rx="10" fill="#f9fafb" stroke="#e5e7eb"/>
  <text x="56" y="334" font-family="Arial" font-size="14" fill="#111827">Self-Serve Expansion</text>
  <text x="56" y="356" font-family="Arial" font-size="12" fill="#4b5563">Updated yesterday • Readiness 64%</text>

  <rect x="396" y="88" width="620" height="760" rx="12" fill="#ffffff" stroke="#cfd6e0"/>
  <text x="418" y="122" font-family="Arial" font-size="18" fill="#111827">Draft Details</text>
  <text x="418" y="150" font-family="Arial" font-size="13" fill="#6b7280">Selected: SMB Activation Q2</text>

  <rect x="418" y="170" width="576" height="120" rx="8" fill="#f9fafb" stroke="#e5e7eb"/>
  <text x="438" y="204" font-family="Arial" font-size="14" fill="#111827">Objective</text>
  <text x="438" y="230" font-family="Arial" font-size="13" fill="#374151">Increase SMB new-user activation and shorten time-to-value.</text>

  <rect x="418" y="304" width="576" height="84" rx="8" fill="#f9fafb" stroke="#e5e7eb"/>
  <text x="438" y="338" font-family="Arial" font-size="13" fill="#111827">KR summary: 3 key results, 2 owners, quarter target end date set.</text>

  <rect x="418" y="402" width="576" height="94" rx="8" fill="#f3f4f6" stroke="#d1d5db"/>
  <text x="438" y="435" font-family="Arial" font-size="13" fill="#374151">Last coach note: "KR2 ambition raised; consider confidence check with Sales Ops."</text>

  <rect x="418" y="510" width="190" height="42" rx="8" fill="#ffffff" stroke="#cfd6e0"/>
  <text x="448" y="536" font-family="Arial" font-size="13" fill="#374151">Resume in Coach</text>

  <rect x="1032" y="88" width="314" height="760" rx="12" fill="#ffffff" stroke="#cfd6e0"/>
  <text x="1052" y="122" font-family="Arial" font-size="18" fill="#111827">Publish Validation</text>
  <rect x="1052" y="144" width="274" height="196" rx="8" fill="#fffbeb" stroke="#fcd34d"/>
  <text x="1070" y="176" font-family="Arial" font-size="13" fill="#92400e">Checklist</text>
  <text x="1070" y="202" font-family="Arial" font-size="12" fill="#92400e">✓ Outcome-focused objective</text>
  <text x="1070" y="224" font-family="Arial" font-size="12" fill="#92400e">✓ Measurable KRs</text>
  <text x="1070" y="246" font-family="Arial" font-size="12" fill="#92400e">⚠ KR2 confidence below threshold</text>
  <text x="1070" y="268" font-family="Arial" font-size="12" fill="#92400e">✓ Owners assigned</text>

  <rect x="1052" y="356" width="274" height="110" rx="8" fill="#f9fafb" stroke="#e5e7eb"/>
  <text x="1070" y="390" font-family="Arial" font-size="13" fill="#374151">Resolve warnings or publish anyway</text>
  <text x="1070" y="412" font-family="Arial" font-size="12" fill="#6b7280">with manager acknowledgement.</text>

  <rect x="840" y="784" width="130" height="46" rx="8" fill="#ffffff" stroke="#cfd6e0"/>
  <text x="868" y="812" font-family="Arial" font-size="13" fill="#374151">Save Changes</text>
  <rect x="980" y="784" width="140" height="46" rx="8" fill="#dbeafe" stroke="#60a5fa"/>
  <text x="1025" y="812" font-family="Arial" font-size="13" fill="#1d4ed8">Publish OKR</text>

  <text x="20" y="882" font-family="Arial" font-size="12" fill="#9ca3af">Wireframe 04 — Drafts and Publish</text>
</svg>